<?xml version="1.0" encoding="UTF-8"?>
<svg version="1.1" xmlns="http://www.w3.org/2000/svg" width="1698" height="2075">
<path d="M0 0 C2.09965007 1.94399778 4.23425741 3.81558295 6.4140625 5.66796875 C24.72264158 21.65045787 39.25123911 40.80556879 50.4765625 62.29296875 C51.08242187 63.44925781 51.68828125 64.60554688 52.3125 65.796875 C61.73409721 84.87454356 67.08568116 105.36742293 70.4765625 126.29296875 C70.60788574 127.08348633 70.73920898 127.87400391 70.87451172 128.68847656 C74.44118984 151.28911014 74.75289146 178.18530476 69.98486328 200.60498047 C69.55842159 202.93481993 69.28154865 204.93100851 69.4765625 207.29296875 C71.47277398 209.61967882 72.72613922 210.72745346 75.2265625 212.29296875 C76.44133493 213.13625064 77.65485832 213.98133437 78.8671875 214.828125 C79.47884766 215.24078613 80.09050781 215.65344727 80.72070312 216.07861328 C83.25244687 217.82957176 85.60872248 219.76544175 87.9765625 221.73046875 C88.8634375 222.46136719 89.7503125 223.19226563 90.6640625 223.9453125 C94.33533854 227.00980819 97.985648 230.09854211 101.62744141 233.19799805 C105.16061977 236.19988327 108.74066017 239.13446112 112.3515625 242.04296875 C116.05958855 245.05875839 119.48720252 248.18122092 122.8046875 251.6171875 C124.60227175 253.41897172 126.48316552 255.07274131 128.4140625 256.73046875 C131.22232597 259.14914654 133.87626843 261.65196558 136.4765625 264.29296875 C139.05665465 266.91337484 141.68759857 269.39620287 144.4765625 271.79296875 C150.72093973 277.18195184 156.32424473 283.04299898 161.6953125 289.29296875 C163.5508146 291.37633953 165.48879351 293.33578082 167.4765625 295.29296875 C171.35663756 299.12861547 174.93394224 303.14633853 178.4765625 307.29296875 C179.40587718 308.37011343 180.33559794 309.44690784 181.265625 310.5234375 C187.44772523 317.69121942 193.53140623 324.92657983 199.4765625 332.29296875 C200.1247998 333.08960938 200.1247998 333.08960938 200.78613281 333.90234375 C202.22859983 335.67518553 203.66524 337.45264629 205.1015625 339.23046875 C205.60840576 339.85171631 206.11524902 340.47296387 206.63745117 341.11303711 C209.5263907 344.69771877 212.21643268 348.33960281 214.76953125 352.171875 C223.57858752 365.15318329 233.19024387 372.5926417 246.60595703 380.55029297 C251.06845436 383.25936815 255.33820016 386.22061217 259.6015625 389.23046875 C260.81283813 390.08282104 260.81283813 390.08282104 262.04858398 390.95239258 C285.11026855 407.31215546 307.18442252 425.13777204 328.11328125 444.1484375 C329.73294064 445.61817801 331.36101065 447.0786878 332.99609375 448.53125 C337.95002049 452.93727701 342.69664634 457.47541042 347.34765625 462.19921875 C349.22420711 464.0447807 351.14271875 465.73566143 353.1640625 467.41796875 C358.59679031 472.06681599 363.2969787 477.45137865 368.13671875 482.69921875 C370.66946695 485.4408461 373.25104526 488.11417111 375.9140625 490.73046875 C379.6463906 494.41565166 383.07177844 498.30544281 386.4765625 502.29296875 C387.38251202 503.3466126 388.28878833 504.39997552 389.1953125 505.453125 C391.78126207 508.45989527 394.35930241 511.47333651 396.93457031 514.48925781 C398.40136822 516.20501191 399.87230283 517.91713968 401.34375 519.62890625 C407.17833487 526.43985751 412.76607912 533.39609692 418.16552734 540.55664062 C419.53017458 542.36397231 420.90351122 544.16448689 422.27734375 545.96484375 C434.39772774 561.91314426 445.78527545 578.35521198 456.4765625 595.29296875 C456.97478516 596.07687988 457.47300781 596.86079102 457.98632812 597.66845703 C501.78860892 666.71296128 533.11507357 742.84000963 567.4765625 926.29296875 C567.53608093 927.001651 567.59559937 927.71033325 567.65692139 928.44049072 C570.8661123 967.19643459 570.7594063 1006.5460261 567.4765625 1045.29296875 C567.41339844 1046.03899353 567.35023437 1046.78501831 567.28515625 1047.5536499 C561.80838964 1111.19589273 549.17369569 1176.14462916 525.72436523 1235.74926758 C525.41184814 1236.56290771 525.09933105 1237.37654785 524.77734375 1238.21484375 C524.50059814 1238.9119043 524.22385254 1239.60896484 523.9387207 1240.32714844 C523.37865749 1242.70941415 523.59205233 1244.02219314 524.4765625 1246.29296875 C526.8926519 1248.44406403 526.8926519 1248.44406403 529.9140625 1250.48046875 C534.98543723 1254.1145872 539.64469264 1258.00052342 544.234375 1262.23828125 C546.16762563 1264.00986632 548.13945584 1265.69079216 550.1640625 1267.35546875 C554.02693756 1270.66266341 557.2491563 1274.3721745 560.4765625 1278.29296875 C561.3015625 1279.28039063 562.1265625 1280.2678125 562.9765625 1281.28515625 C595.97412727 1321.50503175 608.53836441 1372.24899801 604.015625 1423.53515625 C600.37481714 1456.09199231 587.9606533 1488.88447517 568.4765625 1515.29296875 C567.89817627 1516.0811499 567.89817627 1516.0811499 567.30810547 1516.88525391 C556.94901908 1530.877964 545.25686123 1543.6331328 531.4765625 1554.29296875 C530.69023438 1554.98003906 529.90390625 1555.66710938 529.09375 1556.375 C515.6773055 1568.04604498 499.59455391 1576.91580209 483.4765625 1584.29296875 C482.71504883 1584.64810547 481.95353516 1585.00324219 481.16894531 1585.36914062 C454.78871891 1597.58044478 425.44188505 1606.23844383 396.4765625 1609.29296875 C396.3741626 1610.35451172 396.2717627 1611.41605469 396.16625977 1612.50976562 C395.42451297 1618.39737578 393.90283358 1624.08124532 392.44140625 1629.82421875 C391.96481785 1631.72153651 391.48822977 1633.61885436 391.0116539 1635.51617527 C390.50162743 1637.54280353 389.9892615 1639.56882735 389.47622681 1641.59469604 C388.40020367 1645.84440823 387.33178693 1650.09601109 386.2644043 1654.34790039 C383.08111043 1667.02188692 379.88189668 1679.69184793 376.67885876 1692.36085701 C375.230953 1698.08916487 373.78734792 1703.81854839 372.34628773 1709.54858208 C371.49439926 1712.93468458 370.64014314 1716.32014801 369.77975464 1719.70410156 C366.44783711 1732.81283908 363.20226839 1745.93989572 360.375 1759.16796875 C360.14512894 1760.1834227 359.91525787 1761.19887665 359.67842102 1762.24510193 C358.09633574 1769.95423959 358.92805328 1774.26376167 362.57421875 1781.30078125 C379.61924642 1814.34779564 375.03690327 1861.07899514 364.4765625 1895.29296875 C364.27224609 1895.95538574 364.06792969 1896.61780273 363.85742188 1897.30029297 C348.73762661 1944.63965195 311.69513203 1982.96735799 268.39501953 2005.82910156 C218.79135608 2030.70977465 159.17832616 2034.26583204 106.59130859 2017.36572266 C95.09318606 2013.54080125 84.03959532 2009.09423471 73.37988281 2003.32275391 C71.42909373 2002.26728593 69.46509731 2001.23947575 67.5 2000.2109375 C57.42024503 1994.83816864 48.37425716 1988.43733404 39.4765625 1981.29296875 C38.86006836 1980.79893555 38.24357422 1980.30490234 37.60839844 1979.79589844 C8.86464965 1956.52129694 -11.36416801 1924.85041198 -21.5234375 1889.29296875 C-21.5234375 1888.63296875 -21.5234375 1887.97296875 -21.5234375 1887.29296875 C-22.85725464 1887.50409302 -22.85725464 1887.50409302 -24.21801758 1887.71948242 C-33.92888476 1889.14923764 -43.40236223 1889.65709356 -53.2109375 1889.60546875 C-53.95322601 1889.6033136 -54.69551453 1889.60115845 -55.46029663 1889.59893799 C-93.80355224 1889.42095853 -131.14362052 1876.96504694 -161.5234375 1853.29296875 C-162.41417969 1852.62394531 -163.30492187 1851.95492188 -164.22265625 1851.265625 C-178.2744695 1840.32243412 -190.83547328 1827.2431553 -200.5234375 1812.29296875 C-200.95205078 1811.63361328 -201.38066406 1810.97425781 -201.82226562 1810.29492188 C-211.75044429 1794.77381992 -218.38102464 1778.49398057 -222.91479492 1760.65209961 C-224.71902699 1753.88494673 -227.35328863 1748.89154421 -231.5234375 1743.29296875 C-232.35909777 1742.09718095 -233.19014251 1740.89814882 -234.015625 1739.6953125 C-234.60259155 1738.84610229 -234.60259155 1738.84610229 -235.20141602 1737.97973633 C-241.31010868 1729.05279712 -248.10103728 1718.95880418 -250.5234375 1708.29296875 C-251.37945557 1708.18339844 -252.23547363 1708.07382813 -253.11743164 1707.9609375 C-325.09439263 1698.59188801 -395.70256796 1679.08081443 -461.5234375 1648.29296875 C-462.55791016 1647.81150391 -463.59238281 1647.33003906 -464.65820312 1646.83398438 C-505.48065867 1627.75973659 -545.11305273 1605.83952936 -581.33007812 1578.91699219 C-583.63925135 1577.207217 -585.9625578 1575.51813591 -588.2890625 1573.83203125 C-598.03918852 1566.74521572 -607.51668482 1559.40445722 -616.79980469 1551.71679688 C-619.23573815 1549.70456402 -621.69386225 1547.71989125 -624.1484375 1545.73046875 C-635.30301213 1536.57372838 -646.05704937 1527.07213519 -656.54199219 1517.15673828 C-658.57925079 1515.24047015 -660.63153002 1513.34147971 -662.6875 1511.4453125 C-672.0618102 1502.76886045 -680.94495631 1493.75454817 -689.60351562 1484.36572266 C-691.49619734 1482.32237731 -693.40493279 1480.29550287 -695.3203125 1478.2734375 C-701.20765067 1472.0481413 -706.91644475 1465.77940432 -712.265625 1459.078125 C-714.3785602 1456.47168417 -716.55197241 1453.9377461 -718.75683594 1451.40966797 C-725.47750124 1443.69150534 -731.74343455 1435.68284714 -737.87451172 1427.49072266 C-739.46690335 1425.36831971 -741.07418675 1423.25795116 -742.68359375 1421.1484375 C-765.57148009 1390.88806067 -786.5533857 1358.23307234 -803.5234375 1324.29296875 C-805.59271489 1323.57688632 -805.59271489 1323.57688632 -808.1328125 1323.06640625 C-809.59013794 1322.73249878 -809.59013794 1322.73249878 -811.0769043 1322.3918457 C-812.65918823 1322.03352661 -812.65918823 1322.03352661 -814.2734375 1321.66796875 C-838.83180375 1315.77344971 -866.5111952 1305.71331786 -885.07421875 1287.79614258 C-891.77194174 1281.80388567 -900.35354546 1281.05630899 -908.8984375 1279.60546875 C-910.56456164 1279.30590452 -912.23049474 1279.00527591 -913.89624023 1278.70361328 C-924.4685988 1276.82341531 -935.04385345 1275.43577494 -945.72753906 1274.34814453 C-987.50980773 1269.88823945 -1026.26765668 1247.20016338 -1053.20166016 1215.30566406 C-1056.54586751 1211.12513785 -1059.60098672 1206.77643592 -1062.5234375 1202.29296875 C-1062.92498047 1201.67711914 -1063.32652344 1201.06126953 -1063.74023438 1200.42675781 C-1076.82449094 1180.0581542 -1085.14911096 1157.70148029 -1089.1015625 1133.82666016 C-1089.37867404 1132.16238728 -1089.66992394 1130.50039503 -1089.9765625 1128.84130859 C-1094.97383278 1101.55556664 -1095.28413722 1070.25344555 -1088.5234375 1043.29296875 C-1088.30913086 1042.43058594 -1088.09482422 1041.56820313 -1087.87402344 1040.6796875 C-1079.89564758 1009.69525257 -1064.67022219 983.24631312 -1042.5234375 960.29296875 C-1041.78738281 959.50535156 -1041.05132813 958.71773437 -1040.29296875 957.90625 C-1025.89891802 942.88295115 -1001.60788312 924.55180794 -980.80566406 920.80322266 C-980.0525293 920.63483887 -979.29939453 920.46645508 -978.5234375 920.29296875 C-977.38568574 918.10814478 -977.38568574 918.10814478 -976.5234375 915.29296875 C-968.18211659 899.79295087 -956.92076933 886.4986218 -944.90185547 873.77294922 C-942.87219892 871.59374659 -940.9220803 869.34627541 -938.9609375 867.10546875 C-920.07059374 846.1537458 -895.1967141 831.18406095 -868.5234375 822.29296875 C-867.52428302 819.70380297 -867.52428302 819.70380297 -866.8671875 816.4609375 C-866.57191162 815.20385986 -866.27663574 813.94678223 -865.97241211 812.65161133 C-865.81819794 811.97288971 -865.66398376 811.29416809 -865.50509644 810.59487915 C-862.05671229 795.45699057 -857.72485182 780.67869954 -852.94140625 765.9128418 C-852.47780579 764.45232986 -852.0142613 762.99180015 -851.55078125 761.53125 C-851.33038681 760.87109894 -851.10999237 760.21094788 -850.88291931 759.53079224 C-849.69005697 755.74455913 -849.29074388 753.09603176 -850.5234375 749.29296875 C-851.86728484 746.89503815 -851.86728484 746.89503815 -853.5859375 744.48046875 C-880.46955481 703.43888086 -887.38373861 650.98445979 -878.16943359 603.38574219 C-876.39373661 594.88440833 -874.16598665 586.56438855 -871.5234375 578.29296875 C-871.27255371 577.50583496 -871.02166992 576.71870117 -870.76318359 575.90771484 C-856.65595589 532.76953624 -829.51537923 494.99525571 -800.03955078 461.04736328 C-798.52294715 459.29240134 -797.01930758 457.52716765 -795.51953125 455.7578125 C-789.20807757 448.31883588 -782.73203937 441.07025595 -776.06542969 433.94824219 C-774.53358253 432.30385908 -773.01544706 430.64777851 -771.5 428.98828125 C-763.91743745 420.72202587 -756.06985095 412.73260585 -748.1484375 404.79296875 C-747.63228882 404.27423187 -747.11614014 403.755495 -746.58435059 403.22103882 C-741.32795707 397.94384301 -736.04572558 392.75326152 -730.3828125 387.90722656 C-727.05742807 385.02022002 -723.90041905 381.9532094 -720.7109375 378.91796875 C-715.30912265 373.81200637 -709.83471773 368.95563027 -704.01953125 364.32421875 C-701.49620419 362.27080706 -699.10411477 360.12108818 -696.7109375 357.91796875 C-692.33642924 353.93613288 -687.77814675 350.27554792 -683.10693359 346.65405273 C-679.29043082 343.69262177 -675.53152487 340.6736859 -671.80419922 337.60083008 C-603.65364782 281.49623945 -523.30165112 236.11735986 -331.5234375 172.29296875 C-331.39666626 171.45995239 -331.39666626 171.45995239 -331.26733398 170.61010742 C-322.50454244 114.2172112 -301.40016424 64.06267039 -262.76171875 21.75390625 C-261.28359704 20.12874626 -259.82216489 18.48822969 -258.37890625 16.83203125 C-225.8161995 -20.36572745 -178.90929859 -43.45818192 -129.7734375 -47.45703125 C-80.8888322 -49.73185942 -35.75661592 -33.23201335 0 0 Z " fill="#4D7DF5" transform="translate(1093.5234375,47.70703125)"/>
<path d="M0 0 C2.54974228 1.54092487 4.53818421 3.5132223 6.625 5.625 C7.1715625 6.14707031 7.718125 6.66914063 8.28125 7.20703125 C18.94281429 17.53701579 22.85271722 27.66439562 23.25 42.5625 C23.14970636 51.21510572 22.14020787 59.78454723 18.31126404 67.63009644 C11.87534122 81.08214904 11.98811564 94.17369267 12.08831334 108.86429834 C12.10417709 112.29162475 12.07996467 115.71869127 12.06040955 119.14596558 C12.02943533 125.60540624 12.03333732 132.06431174 12.05048412 138.52378452 C12.06828771 145.89055292 12.04612384 153.25704262 12.02097714 160.62377 C11.97022139 175.7492782 11.96843966 190.87442215 12 206 C12.79786423 205.99614792 13.59572845 205.99229584 14.41777039 205.98832703 C15.47833145 205.98533096 16.53889252 205.9823349 17.6315918 205.97924805 C18.67695602 205.97539597 19.72232025 205.97154388 20.79936218 205.96757507 C53.18853353 206.29570233 78.4488049 213.95116465 103 235 C104.02514569 235.86434503 105.0512204 236.72758917 106.078125 237.58984375 C108.82026647 239.89506206 111.55069632 242.21368161 114.27783203 244.53662109 C116.05466081 246.04644697 117.8375854 247.54885436 119.62109375 249.05078125 C125.65533211 254.15200676 131.47233066 259.31548678 136.98828125 264.984375 C138.94342337 266.94331351 140.96340182 268.75979286 143.0625 270.5625 C149.17953586 275.82994755 154.70550493 281.56034821 159.9609375 287.6796875 C162.03534476 290.0402199 164.16438045 292.33909071 166.30932617 294.63525391 C172.1469346 300.88885906 177.64773913 307.32274947 183 314 C184.00636432 315.22775097 185.01427721 316.45423366 186.0234375 317.6796875 C194.49382125 327.98597886 202.55035347 338.56009587 210.43359375 349.3203125 C216.76045052 357.89501266 223.5281576 365.65566989 231.25 373 C238.51819142 380.15515579 242.04229496 387.93216179 242.28125 398.08203125 C242.29965942 398.7738298 242.31806885 399.46562836 242.33703613 400.1783905 C242.39569775 402.3896751 242.44850909 404.60103754 242.5 406.8125 C242.56806939 409.71499139 242.64183694 412.61726236 242.71875 415.51953125 C242.74904297 416.80964111 242.77933594 418.09975098 242.81054688 419.42895508 C242.98428798 422.70384049 243.4497298 425.77266661 244 429 C244.89616832 444.17676495 244.68084474 458.47891296 240 473 C234.75014691 489.18128846 234.75014691 489.18128846 235.49926758 505.85498047 C237.31819596 513.6468404 235.70955215 520.21595288 232.4375 527.3125 C232.04691406 528.18986816 231.65632813 529.06723633 231.25390625 529.97119141 C225.37688896 542.90730786 218.73789909 555.49590228 212 568 C211.55624023 568.8235498 211.11248047 569.64709961 210.65527344 570.49560547 C205.29108881 580.29841642 198.64189824 588.73926627 191.45703125 597.25927734 C189.57123266 599.51225053 187.75243767 601.81473559 185.9375 604.125 C182.2399112 608.76648805 178.37799961 613.25801224 174.49853516 617.74731445 C171.36418499 621.38127905 168.31341335 625.06660466 165.3125 628.8125 C161.82298125 633.11602945 158.09461381 637.01855073 154.12109375 640.875 C152.10143913 642.89837406 150.26918549 644.99446159 148.4375 647.1875 C140.10561943 656.74804498 140.10561943 656.74804498 134.78515625 657.1796875 C131.98740924 656.86601604 129.52276255 656.26138127 127 655 C127.17660156 655.54527344 127.35320313 656.09054687 127.53515625 656.65234375 C128.14954928 659.31471354 128.36324444 661.27979448 128 664 C125.49267194 667.56584627 122.32745625 670.21157093 119 673 C118.39929687 673.54914062 117.79859375 674.09828125 117.1796875 674.6640625 C115.16360734 676.4993283 113.09044514 678.24962727 111 680 C110.47615723 680.4429541 109.95231445 680.8859082 109.41259766 681.34228516 C86.57289122 700.58667741 61.20011141 716.76952717 35.34521484 731.64404297 C32.58330459 733.24092508 29.83254363 734.85622277 27.08203125 736.47265625 C16.81713461 742.49913883 6.5649754 748.51116512 -4 754 C-4 755.32 -4 756.64 -4 758 C-3.175 757.835 -2.35 757.67 -1.5 757.5 C8.22222222 756.11111111 8.22222222 756.11111111 12 758 C22.02667531 759.6568782 28.68875266 755.97459158 37.00390625 751.10693359 C39.63299163 749.64897455 42.34394466 748.44701719 45.09375 747.23681641 C56.1660346 742.34879524 66.04352661 735.83546908 76 729 C76.65097656 728.55366211 77.30195312 728.10732422 77.97265625 727.64746094 C104.18603765 709.54437518 130.27552221 689.64130076 150.3125 664.6875 C154.56808828 659.3891009 159.15825852 654.4616603 163.86450195 649.56518555 C172.9763987 639.99423804 180.00524488 629.12573184 187.16064453 618.07739258 C201.33686669 596.22936434 201.33686669 596.22936434 207.25732422 594.24243164 C208.11994873 594.12242798 208.11994873 594.12242798 209 594 C211.69564205 603.47956524 205.14220988 614.52968692 201.125 623 C200.62814697 624.06033447 200.13129395 625.12066895 199.61938477 626.21313477 C197.76239867 630.149967 195.88376567 634.07593378 194 638 C193.39336517 639.26611115 193.39336517 639.26611115 192.7744751 640.55780029 C189.9894843 646.36743907 187.19037789 652.17006689 184.37811279 657.96655273 C183.43293707 659.91576994 182.48971391 661.8659354 181.54864502 663.81713867 C149.07352177 731.05626563 101.80795146 770.84589803 33.984375 800.31005859 C25.28733963 804.08890818 16.70408428 807.91135661 8.5 812.6875 C7.89430176 813.03200195 7.28860352 813.37650391 6.66455078 813.73144531 C1.37437459 816.94545964 -1.16079582 820.66828712 -3.234375 826.4296875 C-4.96942164 834.52067032 -4.47694514 843.02290093 -3 851.125 C-0.04787805 868.66782539 -2.49223394 886.61822302 -4.546875 904.12695312 C-4.99448478 907.9528591 -5.42030517 911.78072803 -5.84375 915.609375 C-12.75080983 976.67406308 -25.25179835 1036.97955083 -37.40625 1097.171875 C-37.63137772 1098.28828873 -37.85650543 1099.40470245 -38.0884552 1100.5549469 C-39.09067203 1105.52035279 -40.09823192 1110.48443362 -41.125 1115.44482422 C-43.4603661 1126.79254101 -45.34368916 1138.15972261 -47 1149.625 C-47.38809884 1152.27700871 -47.77769323 1154.9287946 -48.16751099 1157.58055115 C-48.4236962 1159.32359803 -48.67930009 1161.06673046 -48.93429565 1162.80995178 C-49.63245649 1167.56814425 -50.3598084 1172.31965602 -51.1328125 1177.06640625 C-54.15174951 1195.63199968 -56.09595466 1214.29321368 -58 1233 C-54.12481657 1231.91732213 -50.24988919 1230.83373042 -46.375 1229.75 C-45.29992187 1229.44964844 -44.22484375 1229.14929687 -43.1171875 1228.83984375 C-42.034375 1228.53691406 -40.9515625 1228.23398438 -39.8359375 1227.921875 C-38.70679932 1227.60992188 -37.57766113 1227.29796875 -36.41430664 1226.9765625 C-34.19906263 1226.34295678 -31.99377001 1225.67301559 -29.80249023 1224.9609375 C-19.13340735 1221.58415333 -8.40867888 1220.5869188 2.6875 1219.5 C13.70895436 1218.41022549 24.6366394 1217.27234096 35.48828125 1215.00390625 C36.2539592 1214.84438477 37.01963715 1214.68486328 37.80851746 1214.52050781 C45.10636181 1212.90670407 52.90011692 1210.76113623 58 1205 C61.55231174 1197.67952424 62.52909704 1189.04708018 64 1181.125 C64.21277084 1179.9961438 64.21277084 1179.9961438 64.42984009 1178.84448242 C68.23279771 1158.60967255 71.46886179 1138.2706075 74.74553299 1117.94519043 C77.16420545 1102.9424986 79.63200123 1087.96277371 82.59207153 1073.05505371 C83.1624037 1070.18184594 83.71624912 1067.30546884 84.2734375 1064.4296875 C95.76271911 1006.17352955 110.13599292 941.89468335 153 898 C153.93256564 896.99625366 154.86353361 895.99102078 155.79296875 894.984375 C178.68588579 870.61285953 212.90543899 857.08170438 246.04296875 855.890625 C259.32717352 855.57915478 272.54169545 855.66314743 285.69775391 857.65380859 C287.31521535 857.89702814 288.93497653 858.12519934 290.55615234 858.34228516 C334.66672125 864.28897257 375.88415167 884.87837584 403.1875 920.625 C438.03475896 967.89917326 444.12710733 1031.50850769 435.83691406 1088.17822266 C435.25916146 1091.79234288 434.63762844 1095.39599207 434 1099 C433.78569336 1100.25989746 433.57138672 1101.51979492 433.35058594 1102.81787109 C429.43288271 1125.66543732 424.27783377 1148.24994018 419.12304688 1170.84375 C415.63048744 1186.16807698 412.50795906 1201.48172188 410 1217 C410.81339844 1216.96519531 411.62679688 1216.93039062 412.46484375 1216.89453125 C429.32111946 1216.49635151 451.68391653 1218.88146272 465 1230 C468.17075078 1234.0634171 468.40513679 1237.42376753 468.5625 1242.5 C468.63697265 1249.05373527 468.63697265 1249.05373527 471 1255 C476.29735175 1257.40764716 481.45401187 1257.31143921 487.15625 1257.34375 C488.13557495 1257.3583728 489.1148999 1257.37299561 490.12390137 1257.38806152 C493.24922603 1257.43439299 496.37449154 1257.46863877 499.5 1257.5 C537.60357999 1257.8875951 537.60357999 1257.8875951 549 1266 C554.04853524 1271.73106254 555.36635137 1277.52701769 555.27734375 1285.0234375 C554.44381134 1293.96923607 549.61162135 1301.9340285 542.953125 1307.8046875 C523.30566793 1322.6391769 494.48551686 1328.75473313 470.390625 1329.578125 C468.91385788 1329.63534729 468.91385788 1329.63534729 467.40725708 1329.69372559 C454.83682706 1330.1559712 442.25975816 1330.34638686 429.68310547 1330.55224609 C423.4563828 1330.6562315 417.23051055 1330.77728418 411.00476074 1330.92919922 C408.99259274 1330.97661167 406.98028885 1331.01855588 404.96789551 1331.05517578 C402.08449278 1331.11127632 399.20288488 1331.1928948 396.3203125 1331.28125 C395.46484833 1331.29345581 394.60938416 1331.30566162 393.72799683 1331.3182373 C388.44274836 1331.5144927 385.02126873 1332.24735386 381 1336 C379.52485732 1339.17868285 379.52485732 1339.17868285 378.8046875 1342.86328125 C378.64509552 1343.53231979 378.48550354 1344.20135834 378.32107544 1344.89067078 C377.81651102 1347.02677174 377.34497907 1349.16855324 376.875 1351.3125 C376.55302608 1352.70950365 376.22882423 1354.10599578 375.90234375 1355.50195312 C375.41393779 1357.59351959 374.92750138 1359.68536424 374.44979858 1361.77940369 C372.82042715 1368.90493578 370.91685563 1375.94645655 369 1383 C365.26802892 1397.01833357 361.69314439 1411.05904389 358.47216797 1425.20385742 C352.81445753 1450.03248806 346.84681357 1474.79131797 340.6875 1499.5 C340.48684937 1500.30777893 340.28619873 1501.11555786 340.07946777 1501.94781494 C338.019789 1510.22877659 335.89125691 1518.48129886 333.578125 1526.6953125 C330.52915106 1537.53506453 327.78927896 1548.45046546 325.0625 1559.375 C324.79920898 1560.42737854 324.53591797 1561.47975708 324.26464844 1562.56402588 C320.38806043 1578.08421446 316.76162452 1593.61567124 313.56738281 1609.29150391 C313.04588822 1611.78094494 312.48574413 1614.25584434 311.8984375 1616.73046875 C307.0208084 1637.29221797 303.86257994 1658.53654327 303.75 1679.6875 C303.729375 1680.66783203 303.70875 1681.64816406 303.6875 1682.65820312 C303.64000867 1691.52127194 305.09087044 1697.55130952 311.33398438 1703.98242188 C311.86314453 1704.50384766 312.39230469 1705.02527344 312.9375 1705.5625 C317.72769914 1710.35269914 322.2433684 1715.04870167 323.5625 1721.9375 C322.27773124 1728.93235212 317.96974272 1733.71274466 312.24609375 1737.68359375 C301.7902119 1743.81164972 290.28005858 1745.64884283 278.390625 1743.28125 C268.55292556 1740.66349307 260.92437701 1737.46339573 255 1729 C251.28727596 1722.41058905 251.5418938 1716.12647088 251.625 1708.6875 C251.63370117 1707.3787793 251.64240234 1706.07005859 251.65136719 1704.72167969 C251.92753343 1681.32809745 254.60854585 1658.06839002 258.50146484 1635.02099609 C258.98738388 1632.07645048 259.43232854 1629.12882626 259.86328125 1626.17578125 C261.66019004 1614.01399532 263.96676312 1601.98672934 266.51953125 1589.96484375 C266.69065493 1589.15517843 266.8617786 1588.34551311 267.03808784 1587.51131248 C271.70246542 1565.45361742 276.64746822 1543.45777496 281.5770874 1521.45819092 C286.26523062 1500.53520627 290.92783533 1479.60764783 295.35408211 1458.62740135 C295.73422164 1456.82637446 296.11574846 1455.02563965 296.49886894 1453.22524452 C298.9092866 1441.87858416 300.97987247 1430.5205605 302.728302 1419.05312157 C305.28315368 1402.40198189 309.4895939 1386.85349969 315.48828125 1371.078125 C317.49294958 1365.77627826 319.22789052 1360.3829491 321 1355 C323.21202686 1348.28076053 325.47659158 1341.6089268 328 1335 C328.33 1334.01 328.66 1333.02 329 1332 C327.93020905 1332.04789169 326.86041809 1332.09578339 325.75820923 1332.14512634 C315.55333992 1332.60186364 305.34843197 1333.05772892 295.14348793 1333.51279354 C289.90016443 1333.74663342 284.65685385 1333.98075457 279.41357422 1334.21557617 C277.89040226 1334.28374763 277.89040226 1334.28374763 276.33645916 1334.35329628 C274.302327 1334.44435207 272.26819878 1334.53549617 270.23407459 1334.62672997 C265.25467939 1334.84954694 260.27517729 1335.06906647 255.29533386 1335.28164673 C253.3807232 1335.36361681 251.46611639 1335.44567675 249.55151367 1335.52783203 C248.63373988 1335.56718683 247.71596609 1335.60654163 246.77038097 1335.647089 C241.36626347 1335.88323487 235.96745927 1336.16452826 230.56762695 1336.48388672 C229.36105438 1336.54911026 228.15448181 1336.6143338 226.91134644 1336.68153381 C224.79953043 1336.79708908 222.68845155 1336.92788698 220.57888794 1337.0790863 C212.99216902 1337.46872339 208.07530128 1335.59176847 202.02734375 1331.078125 C195.31947855 1326.47350011 188.48624154 1325.56073047 180.51171875 1325.7890625 C179.61361984 1325.80208405 178.71552094 1325.81510559 177.79020691 1325.82852173 C175.86147066 1325.85798038 173.93282787 1325.89420989 172.0043335 1325.93664551 C168.95940884 1326.00085597 165.91504349 1326.04036566 162.86962891 1326.07324219 C157.58926472 1326.13286776 152.30980309 1326.21892925 147.0300293 1326.31738281 C144.8653826 1326.35614574 142.7006609 1326.3909059 140.53588867 1326.421875 C137.34271805 1326.46772712 134.14995588 1326.52553154 130.95703125 1326.5859375 C130.00270706 1326.59748871 129.04838287 1326.60903992 128.06513977 1326.62094116 C117.59970866 1326.52802616 117.59970866 1326.52802616 108.30134583 1330.38119507 C106.24184524 1332.94310416 105.35040145 1335.92444044 104.3125 1339 C103.93339478 1340.10239014 103.93339478 1340.10239014 103.54663086 1341.22705078 C97.00801912 1360.59329067 91.717424 1380.34323692 86.72558594 1400.15478516 C86.12237509 1402.52013483 85.49772008 1404.87660901 84.8515625 1407.23046875 C79.8777615 1425.7926941 77.36028767 1444.96667076 74.81231689 1463.98675537 C71.07006435 1491.85436003 64.84170143 1518.19851435 55.25 1544.6875 C54.98074707 1545.43491455 54.71149414 1546.1823291 54.43408203 1546.95239258 C52.6953629 1551.60199502 50.73358351 1555.84389148 48 1560 C44.5625 1561.25 44.5625 1561.25 41 1561 C33.57397947 1555.99175359 31.92619513 1546.38992549 30.3125 1538.125 C30.08175781 1536.86945313 29.85101562 1535.61390625 29.61328125 1534.3203125 C29.15562331 1531.84254657 28.65346369 1529.43064064 28 1527 C27.30132813 1527.03480469 26.60265625 1527.06960938 25.8828125 1527.10546875 C24.97273437 1527.13253906 24.06265625 1527.15960937 23.125 1527.1875 C22.22007812 1527.22230469 21.31515625 1527.25710938 20.3828125 1527.29296875 C19.59648438 1527.19628906 18.81015625 1527.09960938 18 1527 C11.78939836 1517.68409753 13.63974535 1501.36887822 13.6875 1490.5 C13.68899048 1489.65605682 13.69048096 1488.81211365 13.6920166 1487.94259644 C13.7664551 1464.28698721 16.24218626 1441.11314853 20.48828125 1417.83544922 C21.00208218 1414.98846258 21.48943736 1412.13813807 21.96875 1409.28515625 C23.64320258 1399.36040391 25.48222691 1389.48574266 27.5 1379.625 C30.58517297 1364.52270497 33.17961483 1349.3094393 35 1334 C14.08743425 1334.11290926 -5.97762031 1336.11385429 -26.60375977 1339.46630859 C-41.44431447 1341.79838052 -55.31263473 1343.11311896 -69 1336 C-72.78392343 1334.22215661 -75.63633276 1333.77436946 -79.8125 1333.875 C-81.27623047 1333.90207031 -81.27623047 1333.90207031 -82.76953125 1333.9296875 C-83.50558594 1333.95289063 -84.24164062 1333.97609375 -85 1334 C-84.93941406 1334.5576001 -84.87882813 1335.1152002 -84.81640625 1335.68969727 C-81.57228716 1366.05652358 -81.57228716 1366.05652358 -84 1374 C-89.83071111 1374.88010734 -92.68079274 1373.94133071 -97.5 1370.5 C-101.57706556 1367.31145355 -105.32267585 1363.93334224 -108.85546875 1360.15234375 C-110.69149825 1358.30962561 -112.56145672 1356.64962969 -114.5390625 1354.96484375 C-117.97346894 1351.98830536 -121.17749291 1348.85029105 -124.35546875 1345.6015625 C-124.82838852 1345.11839066 -125.30130829 1344.63521881 -125.78855896 1344.1374054 C-127.74294474 1342.13819247 -129.69531436 1340.13739877 -131.63208008 1338.12109375 C-140.57135087 1328.83479922 -150.20903391 1320.06586311 -162.625 1315.8125 C-163.28048828 1315.58095215 -163.93597656 1315.3494043 -164.61132812 1315.11083984 C-168.27221679 1313.83879254 -171.96867836 1312.69808402 -175.6796875 1311.58203125 C-194.34108354 1305.96275112 -210.84562991 1299.79368475 -220.5703125 1281.80078125 C-221.04210937 1280.87652344 -221.51390625 1279.95226563 -222 1279 C-222.86625 1277.329375 -222.86625 1277.329375 -223.75 1275.625 C-228.05037475 1263.15391322 -228.44387128 1251.15906494 -228.5 1238.125 C-228.56602023 1222.8571037 -228.92511485 1208.38866734 -235.11010742 1194.14379883 C-244.04930396 1173.24516057 -241.87103256 1146.77265623 -237 1125 C-236.82259277 1124.17790039 -236.64518555 1123.35580078 -236.46240234 1122.50878906 C-231.11287734 1098.39735914 -221.93570083 1075.14778102 -213.625 1051.9375 C-212.43140849 1048.59931969 -211.2380347 1045.26106359 -210.04589844 1041.92236328 C-209.39620734 1040.10704991 -208.74373189 1038.29272742 -208.08691406 1036.47998047 C-197.81485743 1008.02916637 -193.39127578 977.48022065 -188.44604492 947.73144531 C-180.45339551 899.90679101 -180.45339551 899.90679101 -173 885 C-173.59272705 885.24943359 -174.1854541 885.49886719 -174.79614258 885.75585938 C-207.63292107 899.50392711 -241.15865575 911.58706468 -274.79064941 923.23425293 C-277.07429188 924.0257491 -279.35702044 924.81984109 -281.63964844 925.61425781 C-304.55979613 933.58298421 -327.5927286 941.15766687 -350.72265625 948.49511719 C-352.73048474 949.13211106 -354.73829754 949.7691544 -356.74609375 950.40625 C-358.21078346 950.87089409 -358.21078346 950.87089409 -359.70506287 951.34492493 C-365.4449201 953.17094897 -371.16672462 955.04255973 -376.875 956.96484375 C-387.20247853 960.43828402 -397.60174976 963.68117011 -407.99755859 966.94308472 C-472.58652634 987.22444965 -537.2299352 1007.63544108 -600.82714844 1030.85986328 C-646.60072221 1047.53732908 -646.60072221 1047.53732908 -663.6875 1041.3125 C-668.95990106 1038.83805638 -671.72041192 1035.28362152 -674 1030 C-674.13996426 1028.44155183 -674.2197695 1026.87692859 -674.25 1025.3125 C-674.72265367 1019.18618127 -677.67354315 1014.32645685 -682 1010 C-682.3125 1007.6875 -682.3125 1007.6875 -682 1005 C-680 1002.6875 -680 1002.6875 -678 1001 C-682.51264835 1000.81294722 -686.33968832 1001.20276528 -690.68945312 1002.42382812 C-718.70488106 1010.25752598 -750.99037807 1002.16878106 -778.66918945 995.73046875 C-788.81173353 993.41157104 -798.59894863 992.28553519 -809 992 C-811.48239935 984.79782943 -812.21227121 977.9389325 -812.3125 970.375 C-812.34150391 969.63765625 -812.37050781 968.9003125 -812.40039062 968.140625 C-812.4420613 964.56335823 -812.11153406 962.20643346 -810.40234375 959.04296875 C-807.30549062 956.40938471 -805.27446856 956.24944025 -801.25 955.9375 C-791.24906713 954.78951288 -786.24620557 951.69272515 -779.17578125 944.609375 C-776.56867823 942.68096128 -775.16956843 942.66694552 -772 943 C-772 944.32 -772 945.64 -772 947 C-773.32 947.66 -774.64 948.32 -776 949 C-776 950.65 -776 952.3 -776 954 C-757.46324454 954.85163211 -740.17210124 952.5237609 -722 949 C-720.10559112 948.65817527 -718.21107028 948.31697013 -716.31640625 947.9765625 C-675.77302962 940.29305838 -636.77700955 923.34641841 -598.53268433 908.34332275 C-588.19300548 904.28852438 -577.84435077 900.25691156 -567.49160767 896.2355957 C-565.41324486 895.42781679 -563.33524647 894.61909947 -561.25765991 893.80932617 C-542.3081101 886.42357035 -523.28551749 879.30081831 -503.95980835 872.9559021 C-500.10809224 871.68969621 -496.26149956 870.4080426 -492.4140625 869.12890625 C-491.62845444 868.86793655 -490.84284637 868.60696686 -490.03343201 868.33808899 C-487.68880811 867.559166 -485.34435284 866.77973841 -483 866 C-482.26422729 865.75529968 -481.52845459 865.51059937 -480.77038574 865.25848389 C-458.80954582 857.9457683 -437.16382026 849.98048389 -415.60267639 841.56274414 C-404.83396786 837.36547157 -394.00454292 833.33826338 -383.125 829.4375 C-367.66314564 823.8585686 -352.34074322 817.90174092 -337 812 C-351.9508038 816.90515311 -366.8125201 822.01020918 -381.6026001 827.38015747 C-387.03604595 829.35254035 -392.47337864 831.3141676 -397.91015625 833.27734375 C-399.0121637 833.67553818 -400.11417114 834.0737326 -401.24957275 834.48399353 C-416.66430116 840.05091283 -432.11054306 845.52919481 -447.55766296 851.00544739 C-453.25068598 853.02379679 -458.94220182 855.04632668 -464.63259888 857.07206726 C-518.9431247 876.40336134 -573.38510238 895.51513922 -628.21875 913.31640625 C-629.27174789 913.65829987 -630.32474579 914.00019348 -631.40965271 914.35244751 C-636.32864203 915.94705978 -641.25014285 917.53325741 -646.17602539 919.10644531 C-655.18053395 921.99765659 -663.97939079 925.05122864 -672.65600586 928.82495117 C-679.77602827 931.32686165 -687.17433538 931.1744597 -694.640625 931.28125 C-695.64405945 931.29965942 -696.6474939 931.31806885 -697.68133545 931.33703613 C-700.87083474 931.39538403 -704.06038602 931.44832874 -707.25 931.5 C-725.15470978 931.68006505 -725.15470978 931.68006505 -743 933 C-742.25683594 928.18994141 -742.25683594 928.18994141 -739.9453125 926.48046875 C-739.01460937 926.05378906 -738.08390625 925.62710938 -737.125 925.1875 C-736.0525 924.68734375 -734.98 924.1871875 -733.875 923.671875 C-730.99659747 922.40990022 -728.09516212 921.20845332 -725.1875 920.015625 C-724.35202637 919.67120361 -723.51655273 919.32678223 -722.65576172 918.97192383 C-721.00086436 918.2955009 -719.34113427 917.63075294 -717.67626953 916.97924805 C-712.65977617 914.95237679 -708.86371643 912.82680194 -705 909 C-704.49620971 906.28694223 -704.49620971 906.28694223 -705 904 C-706.19625 903.731875 -707.3925 903.46375 -708.625 903.1875 C-713.27475091 902.01066039 -717.31010513 900.57723521 -720.875 897.25 C-722.86826133 893.26347734 -722.63929398 889.95170702 -721.26171875 885.74609375 C-717.14735174 876.42518232 -708.57883355 866.49816226 -700 861 C-697.27162124 860.07070821 -694.55311375 859.69476485 -691.69921875 859.33984375 C-690.50725639 859.16492149 -690.50725639 859.16492149 -689.29121399 858.98646545 C-686.75891969 858.61780556 -684.22396851 858.2761315 -681.6875 857.9375 C-664.96494221 855.61623844 -648.74063069 853.06154868 -633.0625 846.5 C-631.99789551 846.06260498 -630.93329102 845.62520996 -629.83642578 845.17456055 C-609.73069934 836.81956672 -590.23140851 827.19823058 -570.6875 817.625 C-569.65655212 817.12013062 -568.62560425 816.61526123 -567.56341553 816.09509277 C-554.1324037 809.51958342 -554.1324037 809.51958342 -540.73258972 802.88085938 C-508.20208255 786.66894157 -474.31260786 773.8764554 -440 762 C-439.11650879 761.69360596 -438.23301758 761.38721191 -437.32275391 761.0715332 C-400.13231309 748.18049078 -362.74822746 735.82944292 -325.2265625 723.9375 C-222.87518168 699.17226885 -222.87518168 699.17226885 -134 649 C-132.72752903 646.07631403 -131.86658075 643.06487932 -131 640 C-130.74943848 639.15614746 -130.49887695 638.31229492 -130.24072266 637.44287109 C-121.96145328 609.28303836 -115.25556711 580.66703492 -109 552 C-108.81288452 551.1445459 -108.62576904 550.2890918 -108.4329834 549.40771484 C-99.09335366 506.68067224 -91.31646536 463.8473004 -84.42681885 420.66055298 C-84.02928506 418.18254687 -83.62496646 415.70576278 -83.21826172 413.22924805 C-81.04842467 399.92149246 -79.30221393 386.56534678 -77.625 373.1875 C-77.47481415 371.99608398 -77.3246283 370.80466797 -77.16989136 369.57714844 C-73.81029927 342.77689244 -71.29524341 315.90978423 -69 289 C-69.90539017 289.21180405 -69.90539017 289.21180405 -70.82907104 289.42788696 C-77.02961044 290.78614303 -82.86059126 291.28200726 -89.1953125 291.2734375 C-91.13575056 291.29023819 -93.07618036 291.30801435 -95.01660156 291.32666016 C-96.01502075 291.33368958 -97.01343994 291.34071899 -98.04211426 291.34796143 C-115.35921131 291.49984173 -132.10481687 291.86587818 -149 296 C-150.4864502 296.35191406 -150.4864502 296.35191406 -152.00292969 296.7109375 C-188.7296553 305.55910238 -224.01303221 319.49239235 -258.09912109 335.62744141 C-261.07813577 337.03697015 -264.06429961 338.43059102 -267.05078125 339.82421875 C-288.21095898 349.7694521 -308.94676293 360.66285116 -328.95410156 372.77099609 C-331.13363003 374.0802737 -333.32707688 375.36370719 -335.5234375 376.64453125 C-354.94593213 388.03539058 -373.94943645 400.53130164 -392 414 C-392.66112793 414.49274414 -393.32225586 414.98548828 -394.00341797 415.49316406 C-403.61250807 422.68524377 -412.93634461 430.1329508 -422 438 C-423.06734375 438.91652344 -423.06734375 438.91652344 -424.15625 439.8515625 C-430.22547039 445.09994571 -436.12291489 450.53870866 -442 456 C-443.03447266 456.93392578 -443.03447266 456.93392578 -444.08984375 457.88671875 C-458.10993238 471.07686556 -466.74331134 487.47331226 -475.22375488 504.46673584 C-478.36575342 510.75833817 -481.62134674 516.98588182 -484.9375 523.1875 C-485.68 524.60977905 -485.68 524.60977905 -486.4375 526.06079102 C-490.8249493 534.2441152 -497.307913 545.79567531 -506 550 C-509.4605108 550.57238247 -512.81101659 550.75570845 -516.31640625 550.86328125 C-519.81063212 550.9929715 -523.11334702 551.38145473 -526.5625 551.9375 C-527.64144531 552.10894531 -528.72039062 552.28039062 -529.83203125 552.45703125 C-531.83464425 552.80026578 -533.83314222 553.16939406 -535.82421875 553.57421875 C-551.79005959 556.57980428 -570.29830731 557.72807425 -585 550 C-585.87785156 549.54238281 -586.75570312 549.08476563 -587.66015625 548.61328125 C-594.00800107 544.84586115 -597.67507074 539.97478777 -600 533 C-602.09152719 501.48994284 -581.2736531 476.93224112 -562 454 C-561.48405273 453.38495605 -560.96810547 452.76991211 -560.43652344 452.13623047 C-554.34952264 444.90332762 -548.10867514 437.82881537 -541.6796875 430.8984375 C-539.96273967 429.04133067 -538.25834325 427.17249231 -536.5703125 425.2890625 C-530.51572643 418.55545743 -524.20594203 412.10019411 -517.8125 405.6875 C-516.96888916 404.83929687 -516.12527832 403.99109375 -515.25610352 403.1171875 C-510.85786658 398.72974644 -506.3845111 394.50827607 -501.6730957 390.45922852 C-499.73984939 388.77310372 -497.95278362 386.98536916 -496.1875 385.125 C-492.32565925 381.20281799 -488.14868853 377.79758362 -483.859375 374.35546875 C-480.96202564 371.96871784 -478.19660251 369.48226545 -475.4375 366.9375 C-470.46324793 362.37544016 -465.32446791 358.14437476 -460 354 C-458.67946728 352.9612174 -457.35917489 351.92212922 -456.0390625 350.8828125 C-451.38202747 347.22560759 -446.69611393 343.60683433 -442 340 C-441.30922363 339.46697266 -440.61844727 338.93394531 -439.90673828 338.38476562 C-415.29219442 319.48971005 -388.90344851 302.43845585 -362 287 C-361.20078125 286.54028809 -360.4015625 286.08057617 -359.578125 285.60693359 C-305.94137966 254.92315772 -248.44871209 230.42539733 -188 217 C-185.97754116 216.48551486 -183.95659418 215.96503522 -181.9375 215.4375 C-171.30974126 212.77335994 -160.52137841 211.01406811 -149.6875 209.4375 C-148.90769775 209.32277344 -148.12789551 209.20804688 -147.32446289 209.08984375 C-144.55256088 208.69897364 -141.7780768 208.34449851 -139 208 C-138.02329346 207.87652191 -138.02329346 207.87652191 -137.02685547 207.75054932 C-123.1030474 206.02346461 -109.29545553 205.6245206 -95.27783203 205.46826172 C-92.52098322 205.43456637 -89.76448249 205.38955203 -87.0078125 205.34375 C-86.17452423 205.3384729 -85.34123596 205.3331958 -84.48269653 205.32775879 C-80.16988538 205.25350858 -76.96622863 204.86738087 -73 203 C-70.32421875 202.8046875 -70.32421875 202.8046875 -67.6875 202.875 C-66.80449219 202.89304687 -65.92148437 202.91109375 -65.01171875 202.9296875 C-64.34785156 202.95289063 -63.68398438 202.97609375 -63 203 C-62.87882813 202.09121094 -62.75765625 201.18242187 -62.6328125 200.24609375 C-62.29947917 197.74609375 -61.96614583 195.24609375 -61.6328125 192.74609375 C-61.49214355 191.67355347 -61.49214355 191.67355347 -61.34863281 190.5793457 C-61.08386912 188.62050231 -60.80457192 186.66361678 -60.51855469 184.70776367 C-59.17869274 175.28957825 -58.46644382 165.93148806 -58 156.4375 C-57.91858353 154.88286156 -57.83653716 153.328256 -57.75390625 151.77368164 C-57.4050714 145.16232872 -57.07610327 138.55000805 -56.75 131.9375 C-52.63224495 48.46138477 -52.63224495 48.46138477 -27 17 C-26.31679688 16.14921875 -25.63359375 15.2984375 -24.9296875 14.421875 C-18.58263531 6.86708413 -10.42076878 -1.13876442 0 0 Z " fill="#F4F4F5" transform="translate(978,166)"/>
<path d="M0 0 C0.68557983 0.00087616 1.37115967 0.00175232 2.07751465 0.00265503 C37.9723337 0.15360088 73.41731713 15.33444577 99.1875 40.375 C121.46554324 63.0227754 133.5807652 93.02134342 141.1875 123.375 C141.47367188 124.50679687 141.75984375 125.63859375 142.0546875 126.8046875 C146.52442495 146.01995056 147.68135827 165.36188094 147.57861328 185.03491211 C147.56255934 188.67404916 147.57855077 192.31206851 147.59765625 195.95117188 C147.62283687 223.23465572 144.70353208 250.36035071 136.09375 276.36328125 C134.6804787 281.05997164 133.80037012 285.8544937 132.8984375 290.671875 C132.66382813 291.56390625 132.42921875 292.4559375 132.1875 293.375 C125.48666054 296.72541973 116.2344269 293.91974443 109.42578125 292.12890625 C101.37094905 290.25365581 93.42515996 290.20188116 85.19140625 290.171875 C83.91637741 290.16508728 82.64134857 290.15829956 81.3276825 290.15130615 C77.85969042 290.13548565 74.39174671 290.12912923 70.92372131 290.12661743 C69.46838825 290.12553454 68.01305553 290.12379974 66.557724 290.12142944 C46.1290327 290.0889875 25.83181658 290.58006087 5.4375 291.875 C-17.36414037 293.31623635 -40.09067393 293.6881781 -62.93104553 293.68685913 C-65.55084385 293.68749716 -68.17061253 293.69201403 -70.79040527 293.69726562 C-74.9161898 293.70405381 -79.04178222 293.69871509 -83.1675415 293.68308067 C-84.69780838 293.67825941 -86.22808791 293.67642314 -87.75836182 293.67774391 C-89.86610423 293.67815815 -91.97338201 293.66572719 -94.08105469 293.6496582 C-95.26592468 293.64505081 -96.45079468 293.64044342 -97.67156982 293.63569641 C-100.81616505 293.3746958 -103.02171937 292.82905855 -105.8125 291.375 C-107.69957287 286.96905894 -106.39821135 282.07845373 -105.625 277.5 C-105.48553955 276.65139404 -105.3460791 275.80278809 -105.20239258 274.9284668 C-103.75612525 266.4819797 -101.49064807 258.30629879 -99.16015625 250.06933594 C-95.19690524 235.83409961 -92.47956615 221.50107024 -90.0625 206.9375 C-89.91388519 206.04670746 -89.76527039 205.15591492 -89.6121521 204.23812866 C-87.02498362 188.6315912 -84.82735245 173.07514645 -84.15625 157.25390625 C-83.8125 154.375 -83.8125 154.375 -81.8125 152.375 C-81.49297778 149.18051809 -81.49297778 149.18051809 -81.52539062 145.36181641 C-81.51514107 144.27838455 -81.51514107 144.27838455 -81.50468445 143.17306519 C-81.49107445 141.60055286 -81.48203532 140.02799597 -81.47697449 138.45543289 C-81.46868395 135.95665424 -81.44817049 133.45824086 -81.42443848 130.95956421 C-81.37613676 125.63976398 -81.34333354 120.31992627 -81.3125 115 C-81.27669589 108.86704791 -81.23437389 102.73426965 -81.17655945 96.60148239 C-81.15670728 94.15785014 -81.14821045 91.71435589 -81.14025879 89.2706604 C-80.96553535 63.66377878 -73.72068439 38.66066673 -55.5078125 20.015625 C-46.33457435 11.2819989 -36.02703652 5.64149836 -23.8125 2.375 C-22.8992395 2.11009766 -22.8992395 2.11009766 -21.9675293 1.83984375 C-14.72556671 -0.05281711 -7.44350085 -0.02318394 0 0 Z " fill="#4D7DF5" transform="translate(1206.8125,1081.625)"/>
<path d="M0 0 C0.91386475 0.27287842 1.82772949 0.54575684 2.76928711 0.8269043 C5.53846647 1.66147452 8.30072638 2.51628459 11.0625 3.375 C11.85430664 3.61524902 12.64611328 3.85549805 13.46191406 4.10302734 C49.25503074 15.00765733 86.74294117 34.9574203 106.3359375 68.1328125 C115.56024976 85.45448484 115.15038343 106.48606882 109.79882812 125.02880859 C98.64077054 160.58216848 73.57239273 192.11237473 45.54296875 216.23828125 C43.57621484 217.93247714 41.62325927 219.63931064 39.67578125 221.35546875 C31.70347708 228.36007278 23.59372838 235.05997807 15.0625 241.375 C14.42038574 241.85372559 13.77827148 242.33245117 13.11669922 242.82568359 C-4.2085606 255.70351017 -22.29912255 267.48983714 -40.9375 278.375 C-42.11883326 279.07363795 -43.29982274 279.77285753 -44.48046875 280.47265625 C-52.79398608 285.375 -52.79398608 285.375 -53.9375 285.375 C-53.22412258 274.37160777 -51.6891377 263.48570753 -50.20703125 252.56640625 C-49.93110049 250.51663288 -49.65544643 248.46682224 -49.38005066 246.41697693 C-48.65342391 241.01379197 -47.92325671 235.61109145 -47.19226074 230.20849609 C-46.47191994 224.88079746 -45.75454138 219.55270036 -45.03710938 214.22460938 C-44.18472507 207.89469928 -43.33201156 201.56483506 -42.47714233 195.23526001 C-41.0632025 184.76235813 -39.65744755 174.28846145 -38.27001953 163.81201172 C-38.06806426 162.28897194 -38.06806426 162.28897194 -37.86202908 160.73516369 C-37.22785594 155.95210723 -36.5952805 151.16885215 -35.96601868 146.38514709 C-34.59755632 136.02827706 -33.1139373 125.69580155 -31.49949837 115.37439156 C-28.59083331 96.73467747 -26.75943256 78.44945527 -26.36621094 59.57885742 C-26.21714389 53.69713418 -25.80096364 47.99941595 -24.9453125 42.17578125 C-23.69734269 33.43999259 -23.48811523 24.75027455 -23.3125 15.9375 C-23.27418448 14.3196436 -23.23512573 12.70180462 -23.1953125 11.08398438 C-23.10084493 7.1811364 -23.01630064 3.27819442 -22.9375 -0.625 C-15.54227815 -4.79368707 -7.66369782 -2.35512189 0 0 Z " fill="#4D7DF5" transform="translate(1009.9375,460.625)"/>
<path d="M0 0 C0.02650635 1.18126465 0.0530127 2.3625293 0.08032227 3.57958984 C0.49628298 16.88027263 2.41623751 29.57754993 4.9375 42.625 C5.30263013 44.56878579 5.66656646 46.51279622 6.02929688 48.45703125 C7.48579651 56.22814 8.98132888 63.98863478 10.58998108 71.72981262 C17.22929604 108.49028451 0.41314424 162.37915052 -18.8125 192.875 C-23.31951383 197.25324201 -28.37675088 200.26458518 -34.75 200.5625 C-37.86510955 200.36064527 -39.2090939 199.88905221 -42.0625 198.375 C-44 196 -44 196 -44.4375 193 C-44.02914449 190.19984794 -43.47068318 188.38986017 -42 186 C-42.99 185.67 -43.98 185.34 -45 185 C-45.70042868 176.03263432 -43.56870429 167.79850433 -41.375 159.1875 C-41.00389971 157.69659513 -40.63338156 156.20554524 -40.26342773 154.71435547 C-38.33109553 146.97869994 -36.2993001 139.27880178 -34.0625 131.625 C-26.83459796 106.77721229 -20.96981745 82.07468941 -16.82666016 56.51391602 C-14.20058006 40.39285936 -11.00710382 24.42658133 -6.375 8.75 C-6.08619965 7.76215263 -6.08619965 7.76215263 -5.79156494 6.75434875 C-3.65141956 0 -3.65141956 0 0 0 Z " fill="#F2F3F5" transform="translate(1075,1572)"/>
<path d="M0 0 C0.99 0.495 0.99 0.495 2 1 C2.63190993 9.7624843 1.87041375 17.64017484 -0.0625 26.1875 C-2.4317094 36.67983537 -4.19449608 47.1888874 -5.81970215 57.81756592 C-11.76400816 96.60057922 -19.74700531 134.87882 -29 173 C-29.17764893 173.73297302 -29.35529785 174.46594604 -29.53833008 175.22113037 C-32.46434034 187.27834625 -35.41016863 199.32621395 -38.9140625 211.23046875 C-40.46541092 216.6155451 -41.91902525 222.02596431 -43.375 227.4375 C-43.67575439 228.55487549 -43.97650879 229.67225098 -44.28637695 230.82348633 C-46.29442053 238.30947707 -48.2501053 245.8079721 -50.1875 253.3125 C-52.24980853 261.28532142 -54.48025239 269.15827424 -57 277 C-58.89558661 282.97771034 -60.42057724 288.74488295 -61.27734375 294.96875 C-62 297 -62 297 -64.06640625 298.28125 C-64.70449219 298.5184375 -65.34257813 298.755625 -66 299 C-66.33 298.67 -66.66 298.34 -67 298 C-66.94921875 296.109375 -66.94921875 296.109375 -66.6875 293.75 C-66.60886719 292.98171875 -66.53023437 292.2134375 -66.44921875 291.421875 C-66 289 -66 289 -65.04370117 286.89306641 C-63.66079691 283.05975285 -63.28687978 279.32571923 -62.8515625 275.2890625 C-62.64864115 273.55075746 -62.44550904 271.81247702 -62.2421875 270.07421875 C-61.93359173 267.36548777 -61.62848441 264.65643415 -61.328125 261.94677734 C-60.15536059 251.46326656 -58.73130018 241.38496082 -55.67785645 231.25030518 C-54.87908945 228.59860877 -54.10202675 225.94091971 -53.32519531 223.28271484 C-52.02815665 218.85392396 -50.7240871 214.42728096 -49.4152832 210.00195312 C-42.6293128 187.02836527 -36.14454147 164.05716621 -30.84033203 140.69384766 C-30.08619297 137.37887847 -29.31018534 134.06999542 -28.52734375 130.76171875 C-23.57799901 109.43540793 -20.49572476 87.6093284 -17.98779297 65.87329102 C-17.46121791 61.36032025 -16.81233321 56.93399226 -15.92578125 52.4765625 C-15.08283864 48.01728962 -14.86015977 43.80584754 -14.8762207 39.27709961 C-14.87079762 27.77257458 -12.3778681 21.44482106 -6 12 C-4.79680535 9.727299 -3.62737339 7.43624998 -2.5 5.125 C-2.0153125 4.13757813 -1.530625 3.15015625 -1.03125 2.1328125 C-0.6909375 1.42898438 -0.350625 0.72515625 0 0 Z " fill="#5281F5" transform="translate(927,1006)"/>
<path d="M0 0 C-24.23676532 9.84664245 -24.23676532 9.84664245 -35.82275391 13.81323242 C-41.22671076 15.68092034 -46.51738936 17.78227026 -51.8125 19.9375 C-58.19761835 22.53101788 -64.60258868 24.96221475 -71.125 27.1875 C-79.30721797 29.98284558 -87.37126169 33.04820883 -95.43103027 36.17425537 C-123.07344218 46.88309767 -151.13416427 56.42925623 -179.25 65.8125 C-180.00802917 66.06556915 -180.76605835 66.31863831 -181.54705811 66.57937622 C-183.68169137 67.29079371 -185.81717295 67.9995842 -187.953125 68.70703125 C-189.15098633 69.1038208 -190.34884766 69.50061035 -191.58300781 69.90942383 C-195.03955931 71.01262585 -198.50642671 72.02178833 -202 73 C-202.33 72.01 -202.66 71.02 -203 70 C-201.4231543 69.45194702 -201.4231543 69.45194702 -199.81445312 68.89282227 C-162.42869916 55.89421492 -125.11641352 42.69302051 -87.84002686 29.38421631 C-85.49741605 28.54797782 -83.1546842 27.71207833 -80.81182861 26.87652588 C-68.08582519 22.33791858 -55.36802048 17.77831021 -42.67012215 13.16170502 C-38.36218601 11.5966699 -34.05201594 10.03778981 -29.74227905 8.47772217 C-27.38445801 7.621941 -25.02785268 6.76280242 -22.67251587 5.90020752 C-19.42387586 4.71053032 -16.17143559 3.53186854 -12.91796875 2.35546875 C-11.46908768 1.81962914 -11.46908768 1.81962914 -9.99093628 1.27296448 C-8.66740646 0.79789711 -8.66740646 0.79789711 -7.31713867 0.31323242 C-6.55116867 0.03380295 -5.78519867 -0.24562653 -4.99601746 -0.53352356 C-3 -1 -3 -1 0 0 Z " fill="#5A86F5" transform="translate(643,978)"/>
<path d="M0 0 C-1.40727719 13.68455748 -6.90023643 23.83449835 -16 34 C-16.70511719 34.79921875 -17.41023438 35.5984375 -18.13671875 36.421875 C-27.33029514 46.22419414 -40.78554133 57.54968841 -54 61 C-56.29296875 60.60546875 -56.29296875 60.60546875 -58 60 C-53.41747109 55.53203431 -48.58955667 52.57677691 -43 49.5625 C-30.32043725 42.59046482 -24.98754831 33.49834567 -18.40625 20.96484375 C-7.31935654 0 -7.31935654 0 0 0 Z " fill="#5582F5" transform="translate(1078,765)"/>
<path d="M0 0 C1.04977524 -0.00637985 2.09955048 -0.0127597 3.18113708 -0.01933289 C4.87630211 -0.02100212 4.87630211 -0.02100212 6.60571289 -0.02270508 C8.38130333 -0.02769768 8.38130333 -0.02769768 10.19276428 -0.03279114 C12.7069561 -0.03785527 15.22115465 -0.04019962 17.73535156 -0.04003906 C21.50541001 -0.04219461 25.27516055 -0.06026898 29.04516602 -0.0793457 C40.40645573 -0.10643366 51.6974445 0.02344717 63.01977539 1.03198242 C63.89842758 1.1097139 64.77707977 1.18744537 65.68235779 1.26753235 C70.54799676 1.76016033 74.98316204 2.6502311 79.64086914 4.14526367 C79.31086914 5.13526367 78.98086914 6.12526367 78.64086914 7.14526367 C75.72392158 7.20112011 72.80811893 7.23978494 69.89086914 7.27026367 C69.10454102 7.28702148 68.31821289 7.3037793 67.50805664 7.32104492 C62.25022484 7.36148978 57.1242748 7.01094512 51.90632629 6.42037964 C39.63521395 5.0337144 27.53980753 4.9753152 15.20336914 5.14526367 C11.22551687 5.1986193 7.24785053 5.23836016 3.26977539 5.27026367 C2.37400284 5.28686035 1.47823029 5.30345703 0.55531311 5.32055664 C-3.87909153 5.35559919 -7.3281591 5.2522565 -11.35913086 3.14526367 C-11.02913086 2.48526367 -10.69913086 1.82526367 -10.35913086 1.14526367 C-6.89302447 0.18688175 -3.58173934 0.01488255 0 0 Z " fill="#5683F5" transform="translate(1241.359130859375,1415.854736328125)"/>
<path d="M0 0 C1.27230469 0.00902344 2.54460938 0.01804687 3.85546875 0.02734375 C5.31919922 0.04474609 5.31919922 0.04474609 6.8125 0.0625 C5.34616617 4.97942674 4.20443136 7.23911556 -0.1875 10.0625 C-3.55902751 11.17399259 -6.84439714 11.23013353 -10.375 11.375 C-20.680717 12.0527246 -30.77535653 14.40419797 -40.5 17.875 C-44.10261697 19.03516479 -44.84142213 19.14831335 -48.1875 18.0625 C-47.49825439 17.83175781 -46.80900879 17.60101562 -46.09887695 17.36328125 C-28.53506862 11.53041145 -28.53506862 11.53041145 -12.4453125 2.59375 C-8.31128528 -0.20995012 -4.8770862 -0.04474391 0 0 Z " fill="#5280F5" transform="translate(835.1875,906.9375)"/>
<path d="M0 0 C-24.23676532 9.84664245 -24.23676532 9.84664245 -35.82275391 13.81323242 C-41.22670272 15.68091756 -46.51745547 17.78211261 -51.8125 19.9375 C-61.05119583 23.69284881 -70.40702646 27.01730282 -79.83837891 30.25244141 C-84.24647114 31.77690249 -88.62466562 33.38433753 -93 35 C-93 33.68 -93 32.36 -93 31 C-92.44767197 30.80558319 -91.89534393 30.61116638 -91.32627869 30.41085815 C-85.35877923 28.3100538 -79.39189258 26.20751511 -73.42529297 24.10415649 C-71.10561516 23.28666329 -68.78579156 22.46958365 -66.46582031 21.65292358 C-54.30318777 17.37117398 -42.14754635 13.07452289 -30.03515625 8.65234375 C-28.6724485 8.15634674 -28.6724485 8.15634674 -27.2822113 7.65032959 C-23.03295502 6.10360934 -18.78712733 4.54860517 -14.54663086 2.97802734 C-13.04165651 2.42894354 -11.53653845 1.88025339 -10.03125 1.33203125 C-9.3555043 1.07775864 -8.67975861 0.82348602 -7.98353577 0.56150818 C-3.34089166 -1.11363055 -3.34089166 -1.11363055 0 0 Z " fill="#5E89F5" transform="translate(643,978)"/>
<path d="M0 0 C0.66 0 1.32 0 2 0 C7.26183963 5.36501295 11.38983792 11.8878872 15.4375 18.1875 C15.87449219 18.85201172 16.31148437 19.51652344 16.76171875 20.20117188 C19.4811158 24.53413521 20.63532057 27.88785742 21 33 C16.69856638 32.52206293 14.81092644 30.1223165 12 27 C10.47657033 24.68565729 9.19654127 22.27885399 7.9375 19.8125 C7.59460938 19.15483643 7.25171875 18.49717285 6.8984375 17.81958008 C0 4.39484037 0 4.39484037 0 0 Z " fill="#5683F5" transform="translate(884,1408)"/>
<path d="M0 0 C-25.25219975 10.25918182 -25.25219975 10.25918182 -36.87084961 14.19775391 C-39.4195214 15.06489876 -41.87066511 15.93477795 -44.27734375 17.1484375 C-46.5726676 18.28308738 -48.47783785 18.14012012 -51 18 C-51 17.34 -51 16.68 -51 16 C-44.22356028 13.54782174 -37.44212424 11.10987987 -30.65698242 8.68188477 C-28.34818174 7.85379687 -26.04055554 7.02242692 -23.73413086 6.18774414 C-20.42342748 4.99025568 -17.1087138 3.80453881 -13.79296875 2.62109375 C-12.7585112 2.24407822 -11.72405365 1.86706268 -10.6582489 1.47862244 C-9.6974794 1.13819412 -8.7367099 0.79776581 -7.74682617 0.44702148 C-6.90077316 0.1427977 -6.05472015 -0.16142609 -5.18302917 -0.47486877 C-3 -1 -3 -1 0 0 Z " fill="#648DF5" transform="translate(643,978)"/>
<path d="M0 0 C0.33 0 0.66 0 1 0 C0.47108196 7.66931154 -1.64888751 12.02889854 -7.4375 17.25 C-10.13461021 19.47046574 -12.61937867 20.97556929 -16 22 C-14.50133597 18.66623715 -12.56626964 16.06902584 -10.25 13.25 C-7.0939616 9.37537363 -4.06271444 5.44341555 -1.12890625 1.3984375 C-0.75636719 0.93695312 -0.38382813 0.47546875 0 0 Z " fill="#5784F5" transform="translate(1103,742)"/>
<path d="M0 0 C-4.0979661 1.70284849 -8.20425777 3.38461211 -12.3125 5.0625 C-14.06336914 5.79049805 -14.06336914 5.79049805 -15.84960938 6.53320312 C-16.96787109 6.98759766 -18.08613281 7.44199219 -19.23828125 7.91015625 C-20.26993408 8.33433838 -21.30158691 8.75852051 -22.36450195 9.19555664 C-25 10 -25 10 -28 9 C-24.43712664 5.43712664 -19.25579369 4.43742887 -14.5625 2.8125 C-13.49966797 2.43158203 -12.43683594 2.05066406 -11.34179688 1.65820312 C-9.81329102 1.12549805 -9.81329102 1.12549805 -8.25390625 0.58203125 C-7.31877197 0.25436768 -6.3836377 -0.0732959 -5.42016602 -0.41088867 C-3 -1 -3 -1 0 0 Z " fill="#7197F5" transform="translate(643,978)"/>
<path d="M0 0 C-1 2 -1 2 -4.67578125 3.32421875 C-6.21886974 3.78701193 -7.76460003 4.24106377 -9.3125 4.6875 C-10.08529297 4.92533203 -10.85808594 5.16316406 -11.65429688 5.40820312 C-12.40388672 5.62798828 -13.15347656 5.84777344 -13.92578125 6.07421875 C-14.61067627 6.27619873 -15.29557129 6.47817871 -16.0012207 6.6862793 C-18.28296534 7.04441315 -19.81711962 6.69770341 -22 6 C-18.71265867 4.80027611 -15.41952901 3.61732792 -12.125 2.4375 C-11.18785156 2.09525391 -10.25070312 1.75300781 -9.28515625 1.40039062 C-8.38925781 1.08134766 -7.49335937 0.76230469 -6.5703125 0.43359375 C-5.74289551 0.13509521 -4.91547852 -0.16340332 -4.06298828 -0.47094727 C-2 -1 -2 -1 0 0 Z " fill="#7297F5" transform="translate(809,919)"/>
<path d="M0 0 C-0.33 0.99 -0.66 1.98 -1 3 C-4.5625 4.1875 -4.5625 4.1875 -8 5 C-7.6875 3.0625 -7.6875 3.0625 -7 1 C-4 0 -4 0 0 0 Z " fill="#5784F5" transform="translate(441,1049)"/>
</svg>
